<!DOCTYPE svg PUBLIC "-//W3C//DTD SVG 20010904//EN" "http://www.w3.org/TR/2001/REC-SVG-20010904/DTD/svg10.dtd">
<svg version="1.0" xmlns="http://www.w3.org/2000/svg" width="1200px" height="400px" viewBox="0 0 12000 4000" preserveAspectRatio="xMidYMid meet">
<g id="layer101" fill="#2e3e80" stroke="none">
 <path d="M0 2000 l0 -2000 6000 0 6000 0 0 2000 0 2000 -6000 0 -6000 0 0 -2000z"/>
 </g>
<g id="layer102" fill="#2e3e80" stroke="none">
 <path d="M0 2025 l0 -1975 25 0 c20 0 25 -5 25 -25 l0 -25 5975 0 5975 0 0 2000 0 2000 -6000 0 -6000 0 0 -1975z"/>
 </g>
<g id="layer103" fill="#ffffff" stroke="none">
 <path d="M450 3400 l0 -200 1425 0 1425 0 0 -1200 0 -1200 -325 0 -325 0 0 -200 0 -200 1525 0 1525 0 0 1600 0 1600 -2625 0 -2625 0 0 -200z m4850 -1400 l0 -1200 -800 0 -800 0 0 1200 0 1200 800 0 800 0 0 -1200z"/>
 <path d="M6500 3400 l0 -200 1100 0 1100 0 0 -500 0 -500 -1100 0 -1100 0 0 -900 0 -900 2525 0 2525 0 0 200 0 200 -2325 0 -2325 0 0 500 0 500 1100 0 1100 0 0 900 0 900 -1300 0 -1300 0 0 -200z"/>
 </g>

</svg>